<?xml version="1.0" encoding="UTF-8" standalone="no"?>
<!-- Created with Inkscape (http://www.inkscape.org/) -->

<svg
   xmlns:dc="http://purl.org/dc/elements/1.1/"
   xmlns:cc="http://creativecommons.org/ns#"
   xmlns:rdf="http://www.w3.org/1999/02/22-rdf-syntax-ns#"
   xmlns:svg="http://www.w3.org/2000/svg"
   xmlns="http://www.w3.org/2000/svg"
   xmlns:sodipodi="http://sodipodi.sourceforge.net/DTD/sodipodi-0.dtd"
   xmlns:inkscape="http://www.inkscape.org/namespaces/inkscape"
   id="svg2"
   version="1.1"
   inkscape:version="0.91 r13725"
   xml:space="preserve"
   width="297.48749"
   height="227.60001"
   viewBox="0 0 297.48749 227.60001"
   sodipodi:docname="Jednobarevna_modra_varianta.svg"><metadata
     id="metadata8"><rdf:RDF><cc:Work
         rdf:about=""><dc:format>image/svg+xml</dc:format><dc:type
           rdf:resource="http://purl.org/dc/dcmitype/StillImage" /><dc:title></dc:title></cc:Work></rdf:RDF></metadata><defs
     id="defs6" /><sodipodi:namedview
     pagecolor="#ffffff"
     bordercolor="#666666"
     borderopacity="1"
     objecttolerance="10"
     gridtolerance="10"
     guidetolerance="10"
     inkscape:pageopacity="0"
     inkscape:pageshadow="2"
     inkscape:window-width="1920"
     inkscape:window-height="1136"
     id="namedview4"
     showgrid="false"
     inkscape:zoom="1.0369068"
     inkscape:cx="150.67256"
     inkscape:cy="113.8"
     inkscape:window-x="0"
     inkscape:window-y="27"
     inkscape:window-maximized="1"
     inkscape:current-layer="g12"
     inkscape:snap-page="true" /><g
     id="g10"
     inkscape:groupmode="layer"
     inkscape:label="ink_ext_XXXXXX"
     transform="matrix(1.25,0,0,-1.25,0,227.6)"><g
       id="g12"
       transform="scale(0.1,0.1)"><path
         d="M 45.6289,1558.4713 C 20.4922,1558.4613 0,1538.0813 0,1513.0513 22.9727,861.20135 539.102,334.47035 1188.32,291.44335 c 28.41,-1.871 57.03,-0.653 85.92,-0.653 92.28,0 188.18,16.161 274.78,35.121 280.4,61.348 488.08,309.219 488.08,608.92 0,20.62 -1.03,41.02 -2.99,61.14 -3.67,37.33995 -10.68,73.70995 -20.61,108.83995 -74.31,261.8 -315.96,453.66 -602.63,453.66 -286.69,0 -528.315,-191.86 -602.628,-453.66 51.332,-180.57995 182.301,-327.80995 352.718,-401.75895 -56.86,60.749 -91.68,142.209 -91.68,231.779 0,187.85995 152.94,340.16995 341.59,340.16995 188.64,0 341.58,-152.31 341.58,-340.16995 0,-89.57 -34.84,-171.03 -91.67,-231.779 -62.37,-66.68 -151.23,-108.391 -249.91,-108.391 -277.46,0 -516.265,164.73 -623.241,401.31 -15.758,34.85995 -28.668,71.25995 -38.41,108.95995 -14.039,54.35 -21.528,111.33 -21.528,170.07 0,81.74 14.52,160.1 41.071,232.69 1.211,3.33 2.5,6.64 3.758,9.95 0.46,2.2 0.726,4.48 0.726,6.83 0,18.78 -15.301,34 -34.164,34 l -693.3554,0"
         style="fill:#1f357a;fill-opacity:1;fill-rule:evenodd;stroke:none"
         id="path14"
         inkscape:connector-curvature="0" /><path
         d="m 2338.2547,1516.4561 c 21.31,-79.49 32.72,-162.99 32.72,-249.17 0,-291.47001 -129.94,-552.71101 -335.26,-729.44101 -51.29,-38.688 -95.08,-76.969 -180.74,-122.32 155.31,146.011 231.36,317.241 231.36,511.591 0,58.74 -7.49,115.72001 -21.54,170.10001 14.05,54.35 21.54,111.33 21.54,170.07 0,83.78 -15.24,164 -43.08,238.12 -1.26,3.56 -1.8,7.36 -1.8,11.35 0,18.78 15.28,33.99 34.14,34 l 218.55,0 c 20.93,-0.01 38.8,-15.16 44.11,-34.3"
         style="fill:#1f357a;fill-opacity:1;fill-rule:evenodd;stroke:none"
         id="path16"
         inkscape:connector-curvature="0" /></g></g></svg>