<?xml version="1.0" standalone="no"?>
<!DOCTYPE svg PUBLIC "-//W3C//DTD SVG 20010904//EN"
 "http://www.w3.org/TR/2001/REC-SVG-20010904/DTD/svg10.dtd">
<svg version="1.0" xmlns="http://www.w3.org/2000/svg"
 width="2267.000000pt" height="737.000000pt" viewBox="0 0 2267.000000 737.000000"
 preserveAspectRatio="xMidYMid meet">
<metadata>
Created by potrace 1.13, written by Peter Selinger 2001-2015
</metadata>
<g transform="translate(0.000000,737.000000) scale(0.100000,-0.100000)"
fill="#000000" stroke="none">
<path d="M21493 5895 c-106 -34 -199 -90 -274 -164 -70 -70 -129 -150 -129
-174 0 -9 -4 -17 -9 -19 -15 -6 -59 -161 -64 -228 -3 -36 -1 -101 4 -145 10
-78 45 -197 61 -203 4 -2 8 -10 8 -19 0 -13 17 -41 60 -98 57 -76 153 -155
241 -198 109 -53 173 -67 313 -67 191 0 338 66 479 213 78 82 147 210 168 312
17 82 14 226 -6 309 -24 102 -85 214 -157 292 -62 66 -170 145 -218 159 -14 4
-30 11 -36 16 -26 21 -145 39 -254 38 -91 -1 -130 -6 -187 -24z m345 -46 c161
-36 325 -169 405 -330 84 -171 85 -363 1 -533 -79 -158 -201 -264 -369 -319
-66 -22 -98 -27 -186 -27 -90 0 -118 4 -192 29 -48 17 -100 39 -116 50 -16 12
-31 21 -34 21 -6 0 -44 31 -86 70 -47 44 -107 133 -140 210 -67 155 -59 356
20 507 37 69 65 107 119 161 50 49 172 132 194 132 8 0 25 5 38 10 82 37 230
45 346 19z"/>
<path d="M21507 5643 c-2 -4 -16 -48 -31 -98 -15 -49 -31 -97 -36 -105 -4 -9
-11 -31 -15 -50 -4 -19 -15 -55 -25 -80 -10 -25 -39 -112 -65 -195 -25 -82
-51 -160 -56 -173 -15 -38 -11 -42 41 -42 59 0 50 -15 111 183 42 136 43 137
73 138 17 1 92 0 166 -1 200 -2 207 -11 162 -190 -17 -63 -28 -118 -25 -122 5
-10 117 -11 126 -1 4 3 2 12 -4 20 -13 15 -10 38 25 168 25 98 22 133 -16 159
-20 14 -18 16 26 43 25 16 59 47 75 68 36 50 65 136 57 170 -11 44 -58 86
-111 100 -56 14 -470 21 -478 8z m431 -94 c50 -19 51 -100 1 -169 -46 -63 -79
-72 -263 -71 -88 1 -162 3 -164 6 -3 3 7 44 23 92 52 166 43 152 94 155 75 5
284 -4 309 -13z"/>
<path d="M11910 5835 c-5 -6 -18 -44 -30 -85 -20 -71 -39 -136 -75 -260 -27
-92 -72 -252 -85 -305 -7 -27 -16 -58 -21 -67 -5 -10 -20 -59 -34 -110 -25
-91 -66 -235 -106 -373 -36 -124 -40 -139 -49 -175 -5 -19 -16 -60 -25 -90 -9
-30 -29 -100 -45 -155 -16 -55 -40 -140 -55 -190 -14 -49 -30 -103 -34 -120
-5 -16 -18 -64 -30 -105 -13 -41 -33 -113 -47 -160 -13 -47 -36 -125 -50 -175
-14 -49 -30 -103 -34 -120 -30 -110 -95 -332 -116 -395 -13 -41 -24 -78 -24
-82 0 -5 358 -8 795 -8 l794 0 26 88 c15 48 35 117 46 155 53 185 62 218 85
292 13 44 33 113 44 153 11 39 29 105 41 145 12 39 32 112 45 160 13 49 26 93
30 98 3 5 359 9 872 10 477 0 901 4 942 9 157 19 316 47 405 71 22 5 56 14 75
18 19 5 53 15 75 24 22 8 61 21 88 27 26 7 50 17 53 21 3 5 12 9 20 9 45 0
375 183 469 259 61 50 204 201 230 240 44 70 93 174 109 230 25 87 18 284 -12
356 -14 32 -52 108 -67 134 -29 52 -134 161 -200 209 -197 142 -415 220 -735
262 -115 15 -3358 20 -3370 5z m2745 -598 c87 -48 120 -79 152 -141 51 -99 34
-211 -51 -339 -66 -100 -127 -142 -286 -200 l-85 -30 -619 -4 c-340 -2 -624
-2 -631 1 -10 3 -3 38 27 143 21 76 46 163 54 193 50 183 78 282 96 335 11 33
22 66 24 73 3 10 124 12 626 10 l623 -3 70 -38z"/>
<path d="M17991 5843 c-498 -2 -758 -7 -766 -13 -7 -6 -15 -25 -18 -43 -2 -18
-30 -120 -62 -227 -31 -107 -60 -208 -64 -225 -5 -16 -22 -75 -39 -130 -33
-111 -91 -311 -129 -450 -14 -49 -33 -119 -43 -155 -11 -36 -33 -112 -49 -170
-16 -58 -37 -130 -46 -160 -9 -30 -23 -77 -31 -105 -21 -75 -30 -107 -75 -260
-65 -225 -91 -318 -99 -355 -4 -19 -15 -55 -24 -80 -13 -39 -70 -233 -112
-385 -7 -27 -24 -89 -38 -137 l-25 -88 2039 0 c1549 0 2041 3 2046 12 4 6 11
28 15 47 4 20 15 59 23 86 8 28 26 91 39 140 14 50 48 168 76 263 28 96 52
180 53 188 3 12 -161 14 -1217 14 -671 0 -1230 3 -1241 6 l-22 6 29 106 c15
59 39 148 54 197 14 50 46 158 70 240 50 170 187 649 214 750 5 17 39 134 76
260 37 127 76 259 85 295 10 36 32 117 49 180 17 63 35 124 40 135 20 44 20
53 -2 59 -12 3 -29 5 -37 3 -8 -1 -354 -3 -769 -4z"/>
<path d="M2185 5828 c-17 -57 -55 -195 -55 -205 0 -10 365 -13 1790 -13 l1789
0 11 43 c6 23 20 70 31 104 10 34 19 67 19 73 0 16 -3579 14 -3585 -2z"/>
<path d="M6568 5777 c-37 -133 -145 -510 -194 -672 -20 -67 -43 -149 -93 -335
-23 -85 -45 -158 -48 -163 -3 -5 -16 -48 -29 -96 -12 -47 -30 -111 -39 -141
-9 -30 -25 -89 -36 -130 -11 -41 -24 -83 -29 -92 -6 -10 -10 -25 -10 -34 0 -9
-9 -42 -19 -73 -11 -31 -36 -117 -56 -191 -37 -138 -44 -159 -70 -243 -8 -26
-15 -54 -15 -62 0 -9 -4 -23 -10 -33 -5 -9 -23 -69 -41 -132 -17 -63 -40 -144
-51 -180 -11 -36 -30 -105 -42 -155 -13 -49 -31 -107 -40 -129 -9 -21 -16 -42
-16 -47 0 -5 345 -9 795 -9 l795 0 9 23 c5 12 20 63 34 112 28 103 151 535
209 735 21 74 44 153 50 175 6 22 13 42 15 45 3 3 417 8 921 11 873 5 923 7
1037 27 387 67 664 166 920 325 101 63 325 266 325 295 0 6 3 12 8 14 12 5 60
81 83 133 50 114 58 143 62 235 10 231 -101 436 -325 598 -74 54 -224 130
-288 147 -14 3 -34 10 -45 15 -43 19 -226 60 -335 75 -99 13 -337 15 -1765 15
l-1650 0 -17 -63z m2722 -518 c188 -77 257 -211 205 -394 -10 -33 -21 -62 -24
-65 -4 -3 -15 -18 -25 -34 -76 -119 -229 -208 -404 -235 -47 -7 -273 -11 -652
-11 l-580 0 0 30 c0 16 4 39 9 52 19 46 152 506 170 588 5 19 13 48 20 63 l11
28 617 -4 c510 -2 624 -6 653 -18z"/>
<path d="M2053 5356 c-3 -4 -9 -22 -14 -40 -22 -88 -70 -260 -74 -266 -3 -4
-16 -49 -29 -99 l-25 -91 1770 -2 c973 -1 1779 -2 1792 -2 18 -1 24 7 34 44
35 131 85 304 108 375 14 44 22 81 18 82 -23 8 -3576 7 -3580 -1z"/>
<path d="M1837 4603 c-3 -5 -17 -51 -32 -103 -15 -52 -31 -110 -36 -127 -5
-18 -13 -48 -18 -65 -22 -82 -42 -151 -71 -248 -36 -120 -38 -129 -27 -129 4
-1 810 -1 1791 -1 l1784 0 16 53 c25 85 62 216 151 531 14 48 25 90 25 92 0 8
-3579 4 -3583 -3z"/>
<path d="M1565 3668 c-2 -7 -13 -50 -25 -95 -11 -45 -25 -95 -31 -110 -6 -16
-14 -46 -19 -68 -5 -22 -18 -69 -29 -105 -33 -109 -121 -415 -121 -422 0 -5
806 -8 1790 -8 1424 0 1791 3 1794 13 17 63 40 140 69 237 19 63 49 169 67
235 18 66 46 162 61 214 16 51 29 100 29 107 0 20 -3578 21 -3585 2z"/>
<path d="M5065 2189 c-167 -19 -301 -143 -320 -295 -12 -94 51 -153 195 -184
32 -7 89 -22 127 -35 84 -27 100 -54 68 -113 -29 -54 -81 -76 -182 -77 -100 0
-133 19 -147 84 l-9 41 -72 0 c-83 0 -85 -2 -85 -83 0 -65 24 -107 82 -140 69
-41 152 -53 252 -39 144 21 254 89 311 193 24 45 29 66 29 127 1 71 0 75 -31
101 -35 29 -101 52 -243 87 -106 26 -136 48 -125 93 16 65 58 94 152 107 90
12 153 -25 153 -89 l0 -28 83 3 82 3 3 40 c5 58 -13 106 -54 148 -55 55 -133
71 -269 56z"/>
<path d="M5790 2190 c-82 -9 -183 -54 -232 -105 -102 -105 -125 -252 -51 -318
11 -10 85 -36 164 -58 177 -50 189 -57 189 -107 0 -75 -79 -122 -205 -122 -90
0 -135 35 -135 106 0 23 -2 24 -75 24 -63 0 -76 -3 -85 -19 -28 -54 7 -165 65
-201 18 -11 63 -28 100 -37 133 -33 324 14 413 100 75 72 120 213 88 275 -30
58 -87 85 -285 132 -91 22 -116 44 -107 93 17 90 164 135 266 82 23 -12 31
-24 36 -55 l7 -40 77 0 77 0 7 39 c7 45 -14 114 -46 148 -49 53 -145 75 -268
63z"/>
<path d="M12800 2189 c-241 -38 -431 -274 -447 -556 -8 -128 12 -177 102 -252
45 -37 182 -51 270 -27 137 36 241 123 329 274 5 9 -13 12 -78 12 l-85 0 -25
-42 c-30 -51 -94 -93 -162 -108 -43 -9 -57 -8 -97 9 -67 29 -82 58 -80 152 2
121 51 246 124 318 55 54 92 72 159 78 95 8 160 -37 160 -112 l0 -26 83 3 82
3 3 52 c9 153 -143 252 -338 222z"/>
<path d="M16241 2188 c-79 -12 -191 -69 -260 -134 -54 -50 -141 -178 -141
-207 0 -7 -7 -24 -15 -40 -20 -39 -35 -128 -35 -212 0 -62 4 -77 33 -125 84
-139 291 -168 490 -68 170 85 299 311 300 524 0 78 -4 98 -24 135 -58 104
-186 151 -348 127z m129 -156 c54 -26 72 -71 68 -167 -12 -249 -218 -441 -393
-366 -42 18 -53 28 -69 67 -20 49 -17 141 7 219 17 56 72 157 94 175 55 46 95
72 120 80 49 15 136 11 173 -8z"/>
<path d="M19839 2190 c-52 -9 -148 -49 -189 -79 -148 -109 -252 -310 -254
-491 -2 -166 61 -246 214 -271 172 -29 338 52 452 221 21 30 38 58 38 63 0 4
-36 7 -80 7 -74 0 -80 -2 -97 -26 -62 -91 -111 -119 -209 -119 -67 0 -75 2
-103 29 -39 37 -48 96 -32 195 39 230 212 378 369 315 42 -16 60 -41 64 -89
l3 -30 82 -3 c81 -3 83 -2 89 23 20 80 -35 183 -120 227 -43 22 -168 37 -227
28z"/>
<path d="M2848 2171 c-158 -51 -269 -163 -335 -336 -79 -206 -65 -357 40 -433
107 -77 266 -77 423 -2 180 87 295 276 310 510 5 71 3 92 -14 130 -25 58 -64
97 -127 126 -65 31 -209 33 -297 5z m224 -158 c82 -83 40 -318 -79 -438 -61
-62 -124 -90 -200 -90 -74 0 -106 19 -142 85 -24 42 -24 46 -12 129 16 113 66
216 134 277 72 65 98 74 190 70 72 -3 81 -5 109 -33z"/>
<path d="M6797 2179 c-55 -13 -151 -63 -203 -106 -62 -50 -124 -142 -162 -238
-90 -235 -56 -396 100 -465 64 -28 122 -34 208 -21 166 25 316 135 398 290 31
60 65 181 70 253 8 138 -33 219 -141 272 -44 23 -63 26 -141 25 -50 -1 -108
-5 -129 -10z m174 -152 c40 -26 69 -79 69 -125 0 -51 -30 -171 -56 -228 -78
-167 -276 -244 -383 -150 -54 47 -62 110 -31 225 39 138 94 220 184 272 68 38
165 41 217 6z"/>
<path d="M17050 2183 c-14 -3 -57 -20 -96 -39 -187 -89 -340 -355 -321 -560
10 -106 50 -169 139 -216 36 -19 59 -23 133 -23 98 0 142 14 231 75 25 16 47
30 50 30 3 0 4 -19 2 -42 l-3 -43 54 0 c49 0 55 2 62 25 57 192 109 379 109
393 0 15 -15 17 -164 17 l-164 0 -11 -32 c-6 -18 -12 -49 -13 -68 l-3 -35 45
2 c25 2 64 0 87 -3 41 -5 42 -5 30 -32 -24 -53 -95 -112 -162 -134 -111 -36
-199 -6 -237 79 -19 43 -20 53 -9 113 26 146 73 237 153 300 100 80 220 90
285 25 18 -18 33 -42 33 -53 0 -12 5 -24 12 -28 13 -8 149 -7 157 2 3 3 4 24
3 48 -3 85 -47 147 -132 185 -36 17 -64 20 -145 19 -55 0 -111 -3 -125 -5z"/>
<path d="M18085 2183 c-11 -3 -49 -19 -84 -36 -105 -52 -172 -150 -179 -263
-4 -56 -2 -63 27 -96 17 -20 43 -40 58 -46 52 -19 135 -42 151 -42 20 0 133
-40 150 -52 19 -16 14 -72 -8 -101 -31 -39 -98 -67 -161 -67 -108 0 -159 32
-159 100 l0 30 -79 0 c-73 0 -79 -2 -85 -22 -12 -45 -6 -94 17 -138 18 -37 33
-51 82 -75 56 -28 68 -30 170 -30 102 0 116 3 187 34 139 59 206 148 216 283
5 67 4 68 -31 101 -20 20 -57 40 -88 49 -30 9 -98 29 -153 44 -107 30 -126 43
-126 79 0 45 22 75 77 101 46 23 62 26 110 21 69 -7 105 -32 117 -81 l10 -37
75 3 76 3 3 40 c5 59 -6 101 -35 136 -45 54 -93 69 -213 68 -58 -1 -114 -3
-125 -6z"/>
<path d="M1338 2172 c-176 -2 -197 -4 -202 -20 -15 -50 -71 -248 -92 -326 -13
-49 -35 -126 -49 -170 -37 -120 -75 -263 -75 -281 0 -13 12 -15 77 -13 l77 3
17 50 c9 28 24 77 33 110 9 33 22 77 28 98 l11 37 136 0 c125 0 141 2 191 26
120 55 210 189 210 312 0 72 -16 111 -58 141 -44 31 -91 36 -304 33z m133
-143 c19 -6 40 -19 47 -27 32 -41 -1 -141 -59 -178 -35 -22 -49 -24 -148 -24
l-110 0 10 33 c6 17 20 64 31 102 32 109 27 105 117 105 43 0 93 -5 112 -11z"/>
<path d="M1856 2160 c-2 -8 -23 -80 -45 -160 -23 -80 -52 -181 -65 -225 -14
-44 -39 -132 -56 -195 -18 -63 -38 -134 -46 -158 -8 -24 -12 -48 -9 -53 4 -5
39 -9 79 -9 l72 0 33 108 c18 59 40 131 49 160 l16 52 112 0 c62 0 124 -4 137
-9 36 -14 42 -57 19 -133 -11 -35 -23 -89 -27 -121 l-7 -57 90 0 c50 0 93 4
97 10 3 5 0 18 -6 28 -9 15 -8 33 5 83 33 122 36 134 36 177 0 33 -6 49 -26
69 -14 14 -24 26 -22 27 95 57 131 97 159 176 23 65 24 99 4 146 -18 44 -49
71 -98 84 -21 6 -141 12 -267 13 -196 2 -230 0 -234 -13z m389 -134 c42 -18
52 -50 36 -109 -16 -55 -29 -71 -71 -86 -35 -14 -227 -24 -266 -15 -21 5 -21
6 8 107 15 55 34 104 41 109 22 14 215 9 252 -6z"/>
<path d="M3480 2165 c-4 -5 -11 -26 -14 -45 -4 -19 -14 -55 -22 -80 -8 -25
-44 -148 -80 -275 -37 -126 -75 -259 -85 -295 -36 -124 -42 -110 50 -110 96 0
84 -15 136 175 54 197 24 175 234 175 l179 0 6 28 c21 86 23 102 12 102 -6 0
-67 1 -136 1 -69 0 -142 2 -163 5 -37 6 -38 7 -32 37 4 18 14 55 23 82 9 28
15 53 14 58 -1 4 90 7 202 7 124 0 207 4 211 10 6 10 35 115 35 128 0 11 -561
8 -570 -3z"/>
<path d="M4129 2153 c-4 -12 -15 -48 -24 -80 -9 -32 -27 -94 -40 -138 -13 -44
-40 -138 -60 -210 -46 -163 -80 -280 -93 -323 -8 -25 -8 -34 1 -38 7 -2 145
-3 307 -2 l295 3 17 50 c30 92 45 85 -189 85 -115 0 -213 4 -220 8 -9 6 -9 18
-2 47 6 22 16 63 22 90 7 28 16 56 20 63 6 9 58 12 203 12 l195 0 14 33 c7 17
16 49 20 70 l7 37 -196 0 -196 0 6 28 c4 15 15 52 25 82 l18 55 209 3 c151 2
213 6 220 15 11 14 43 120 37 125 -2 2 -135 5 -296 6 l-291 1 -9 -22z"/>
<path d="M6348 2172 l-77 -3 -11 -42 c-6 -23 -19 -69 -30 -102 -36 -120 -60
-203 -96 -330 -19 -71 -49 -173 -65 -225 -16 -53 -29 -99 -29 -103 0 -4 37 -7
83 -5 l82 3 13 45 c8 25 20 68 28 95 7 28 28 97 45 155 17 58 34 119 39 135
10 41 76 269 94 327 8 26 12 49 8 50 -4 2 -42 2 -84 0z"/>
<path d="M7391 2160 c-4 -8 -18 -53 -30 -100 -13 -47 -34 -121 -46 -165 -13
-44 -35 -120 -49 -170 -14 -49 -43 -148 -64 -220 l-39 -130 29 -8 c17 -4 51
-7 76 -5 46 3 46 3 63 53 9 28 24 77 33 110 9 33 26 88 36 121 11 34 20 68 20
75 0 7 14 58 31 113 38 120 37 122 98 -99 23 -82 48 -172 56 -200 55 -186 47
-170 85 -173 64 -6 140 8 140 26 0 8 9 43 19 76 27 86 57 188 82 281 12 44 25
89 29 100 5 11 16 47 24 80 8 33 27 100 42 148 14 49 23 91 19 95 -11 12 -138
4 -145 -9 -5 -6 -31 -95 -60 -198 -65 -229 -79 -278 -92 -314 -10 -25 -12 -26
-23 -10 -7 10 -15 29 -18 43 -8 37 -42 161 -73 270 -15 52 -34 124 -43 159
l-17 64 -88 1 c-69 1 -90 -2 -95 -14z"/>
<path d="M8401 2154 c-15 -12 -33 -35 -41 -51 -14 -26 -70 -115 -266 -418 -43
-66 -93 -145 -112 -175 -19 -30 -48 -74 -63 -97 -16 -23 -29 -44 -29 -47 0 -3
38 -6 84 -6 l84 0 54 85 53 85 153 0 152 0 0 -54 c0 -29 3 -68 6 -85 l7 -31
85 0 85 0 -7 113 c-3 61 -11 173 -16 247 -5 74 -13 200 -16 280 -4 80 -10 151
-13 158 -5 8 -35 14 -90 16 -74 2 -86 0 -110 -20z m58 -351 l1 -133 -100 0
c-55 0 -100 3 -100 8 0 4 23 45 51 92 28 47 61 101 72 120 12 19 24 37 28 40
3 3 12 16 19 30 l14 25 7 -25 c4 -14 7 -85 8 -157z"/>
<path d="M10261 2172 c-11 -4 -32 -70 -95 -292 -30 -108 -78 -276 -97 -339
-10 -35 -19 -72 -19 -81 0 -9 -4 -20 -9 -26 -5 -5 -11 -22 -13 -39 l-3 -30 77
-3 c87 -3 86 -4 107 83 6 28 23 87 38 133 l25 82 138 0 c134 0 139 1 196 31
76 39 126 91 169 174 29 56 35 77 35 131 0 97 -30 142 -105 163 -36 10 -421
21 -444 13z m328 -143 c17 -6 36 -20 42 -31 26 -48 -24 -166 -79 -186 -72 -27
-232 -22 -232 7 0 34 53 197 68 209 20 15 157 16 201 1z"/>
<path d="M11744 2165 c-3 -9 -53 -185 -74 -260 -5 -16 -32 -111 -61 -210 -87
-304 -91 -318 -77 -327 7 -4 43 -8 79 -8 l65 0 17 58 c9 31 30 102 46 157 l29
100 103 3 c58 2 121 -2 142 -8 l39 -11 -5 -57 c-3 -31 -13 -92 -22 -134 -10
-42 -15 -84 -12 -92 5 -13 24 -16 91 -16 l86 0 -6 45 c-4 28 -1 62 9 92 44
140 46 212 7 233 -25 13 -26 27 -2 34 51 17 136 125 148 189 23 130 -29 208
-145 214 -156 8 -454 7 -457 -2z m398 -141 c52 -10 49 -96 -5 -159 -28 -32
-40 -37 -97 -45 -76 -11 -155 -13 -199 -4 -35 7 -35 9 1 124 34 109 22 101
156 95 64 -3 129 -8 144 -11z"/>
<path d="M13594 2172 l-292 -2 -15 -58 c-14 -49 -51 -180 -113 -392 -9 -30
-18 -66 -21 -80 -2 -14 -8 -34 -13 -45 -18 -46 -67 -221 -63 -227 2 -5 139 -8
304 -8 l300 0 16 38 c8 20 18 53 20 72 l5 35 -215 0 c-118 0 -218 2 -220 5 -5
5 8 59 42 180 l7 25 201 3 200 2 17 58 c9 32 16 64 16 70 0 9 -51 12 -194 12
l-194 0 22 83 22 82 217 3 216 2 20 67 c11 37 17 70 13 73 -4 3 -138 4 -298 2z"/>
<path d="M14019 2159 c-5 -10 -15 -41 -23 -71 -21 -73 -85 -303 -101 -358 -7
-25 -25 -88 -40 -140 -15 -52 -35 -122 -46 -154 -10 -33 -15 -64 -11 -68 5 -5
133 -7 286 -6 l278 3 19 70 c10 39 19 72 19 73 0 2 -82 3 -182 2 -101 -1 -191
-2 -201 -1 -19 1 -19 8 14 121 10 36 32 115 49 175 17 61 38 130 46 155 22 64
53 182 54 200 0 24 -148 22 -161 -1z"/>
<path d="M15311 2165 c-4 -5 -15 -39 -24 -75 -36 -140 -40 -156 -48 -175 -5
-11 -15 -45 -23 -75 -8 -30 -40 -143 -71 -250 -32 -107 -59 -202 -62 -211 -4
-15 21 -17 275 -18 l279 -2 15 23 c14 21 20 44 30 103 3 19 -3 20 -196 23
l-198 2 5 23 c3 12 20 69 37 127 18 58 36 119 40 135 4 17 29 102 54 190 25
88 46 167 46 175 0 12 -15 15 -76 15 -42 0 -79 -4 -83 -10z"/>
<path d="M17704 2173 l-70 -4 -37 -132 c-21 -73 -49 -170 -63 -217 -15 -47
-42 -141 -61 -210 -18 -69 -40 -149 -48 -178 -8 -29 -15 -57 -15 -63 0 -6 31
-9 78 -7 l77 3 26 80 c28 87 87 287 126 430 25 91 29 106 59 205 20 67 22 93
9 94 -5 1 -42 0 -81 -1z"/>
<path d="M18571 2165 c-11 -15 -31 -89 -31 -115 0 -21 3 -22 98 -20 53 1 105
2 115 1 19 -1 22 -27 8 -63 -5 -13 -14 -43 -21 -68 -7 -25 -18 -63 -26 -85
-23 -72 -108 -372 -119 -422 l-7 -33 82 0 c56 0 82 4 85 13 2 6 17 62 35 122
54 193 70 248 95 330 13 44 29 100 35 125 6 25 13 53 16 63 5 15 20 17 125 17
l120 0 18 43 c10 23 21 54 25 69 l6 27 -326 3 c-209 2 -328 -1 -333 -7z"/>
<path d="M19318 2173 c-35 -4 -38 -6 -53 -61 -38 -134 -49 -171 -70 -237 -13
-38 -26 -86 -30 -105 -4 -19 -18 -69 -31 -110 -38 -116 -82 -289 -76 -295 10
-10 151 -5 158 6 3 6 15 41 25 78 10 36 25 89 33 116 26 88 87 309 92 335 3
14 9 34 14 45 15 35 60 191 60 207 0 9 -10 18 -22 22 -23 6 -34 6 -100 -1z"/>
<path d="M8940 2098 c-12 -40 -28 -93 -36 -117 -8 -24 -30 -100 -49 -170 -59
-221 -97 -355 -106 -376 -5 -11 -10 -31 -11 -45 l-3 -25 284 0 284 0 18 65 c9
35 15 68 13 72 -3 5 -93 8 -200 8 -181 0 -195 1 -190 18 2 9 28 103 56 207 29
105 59 208 67 230 15 40 53 181 53 197 0 4 -36 8 -80 8 l-79 0 -21 -72z"/>
<path d="M11167 2133 c-110 -174 -174 -274 -198 -310 -16 -23 -29 -46 -29 -51
0 -6 -3 -12 -7 -14 -10 -4 -83 -112 -83 -122 0 -4 -5 -12 -11 -19 -22 -25
-159 -238 -159 -248 0 -11 150 -12 166 -1 5 4 21 25 33 47 13 22 35 57 49 78
l25 37 148 0 148 0 6 -32 c3 -18 6 -55 7 -83 l3 -50 87 -3 87 -3 -5 78 c-13
208 -44 707 -44 719 0 11 -22 14 -100 14 l-100 0 -23 -37z m79 -373 l-1 -85
-98 -3 -99 -3 7 23 c4 13 14 30 21 39 8 8 14 20 14 26 0 6 9 21 19 34 22 28
56 83 73 119 6 14 21 36 32 48 l21 24 6 -69 c4 -37 6 -106 5 -153z"/>
</g>
</svg>
